#define picker_width 16
#define picker_height 16
#define picker_x_hot 5
#define picker_y_hot 1
static char picker_bits[] = {
   0x20, 0x00, 0x50, 0x00, 0x50, 0x00, 0x50, 0x00, 0x50, 0x00, 0xd0, 0x07,
   0xd0, 0x1a, 0x94, 0x2a, 0x0a, 0x2a, 0x0a, 0x20, 0x0a, 0x20, 0x02, 0x20,
   0x04, 0x10, 0x08, 0x18, 0x10, 0x08, 0x10, 0x04};
