#define pickerMask_width 16
#define pickerMask_height 16
#define pickerMask_x_hot 5
#define pickerMask_y_hot 1
static char pickerMask_bits[] = {
   0x20, 0x00, 0x70, 0x00, 0x70, 0x00, 0x70, 0x00, 0x70, 0x00, 0xf0, 0x07,
   0xf0, 0x1f, 0xf4, 0x3f, 0xfe, 0x3f, 0xfe, 0x3f, 0xfe, 0x3f, 0xfe, 0x3f,
   0xfc, 0x1f, 0xf8, 0x1f, 0xf0, 0x0f, 0xf0, 0x07};
