#define xyzoomin_width 16
#define xyzoomin_height 16
#define xyzoomin_x_hot 8
#define xyzoomin_y_hot 8
static char xyzoomin_bits[] = {
   0x80, 0x01, 0x80, 0x01, 0x80, 0x01, 0xa0, 0x05, 0xc0, 0x03, 0x88, 0x11,
   0x10, 0x08, 0x3f, 0xfc, 0x3f, 0xfc, 0x10, 0x08, 0x88, 0x11, 0xc0, 0x03,
   0xa0, 0x05, 0x80, 0x01, 0x80, 0x01, 0x80, 0x01};
