#define xyzoomout_width 16
#define xyzoomout_height 16
#define xyzoomout_x_hot 8
#define xyzoomout_y_hot 8
static char xyzoomout_bits[] = {
   0x80, 0x01, 0xc0, 0x03, 0xe0, 0x07, 0x80, 0x01, 0x80, 0x01, 0x84, 0x21,
   0x86, 0x61, 0x7f, 0xfe, 0x7f, 0xfe, 0x86, 0x61, 0x84, 0x21, 0x80, 0x01,
   0x80, 0x01, 0xe0, 0x07, 0xc0, 0x03, 0x80, 0x01};
