#define xzoomout_width 16
#define xzoomout_height 16
#define xzoomout_x_hot 8
#define xzoomout_y_hot 8
static char xzoomout_bits[] = {
   0x00, 0x00, 0x00, 0x00, 0x00, 0x00, 0x00, 0x00, 0x00, 0x00, 0x04, 0x20,
   0x06, 0x60, 0x7f, 0xfe, 0x7f, 0xfe, 0x06, 0x60, 0x04, 0x20, 0x00, 0x00,
   0x00, 0x00, 0x00, 0x00, 0x00, 0x00, 0x00, 0x00};
