#define xzoomoutMask_width 16
#define xzoomoutMask_height 16
#define xzoomoutMask_x_hot 8
#define xzoomoutMask_y_hot 8
static char xzoomoutMask_bits[] = {
   0x00, 0x00, 0x00, 0x00, 0x00, 0x00, 0x00, 0x00, 0x00, 0x00, 0x04, 0x20,
   0x06, 0x60, 0xff, 0xff, 0xff, 0xff, 0x06, 0x60, 0x04, 0x20, 0x00, 0x00,
   0x00, 0x00, 0x00, 0x00, 0x00, 0x00, 0x00, 0x00};
