#define xzoomin_width 16
#define xzoomin_height 16
#define xzoomin_x_hot 8
#define xzoomin_y_hot 8
static char xzoomin_bits[] = {
   0x00, 0x00, 0x00, 0x00, 0x00, 0x00, 0x00, 0x00, 0x00, 0x00, 0x08, 0x10,
   0x10, 0x08, 0x3f, 0xfc, 0x3f, 0xfc, 0x10, 0x08, 0x08, 0x10, 0x00, 0x00,
   0x00, 0x00, 0x00, 0x00, 0x00, 0x00, 0x00, 0x00};
