#define yzoomin_width 16
#define yzoomin_height 16
#define yzoomin_x_hot 8
#define yzoomin_y_hot 8
static char yzoomin_bits[] = {
   0x80, 0x01, 0x80, 0x01, 0x80, 0x01, 0xa0, 0x05, 0xc0, 0x03, 0x80, 0x01,
   0x00, 0x00, 0x00, 0x00, 0x00, 0x00, 0x00, 0x00, 0x80, 0x01, 0xc0, 0x03,
   0xa0, 0x05, 0x80, 0x01, 0x80, 0x01, 0x80, 0x01};
