#define fff_width 12
#define fff_height 12
static char fff_bits[] = {
   0x41, 0x00, 0xc3, 0x00, 0xc7, 0x01, 0xcf, 0x03, 0xdf, 0x07, 0xff, 0x0f,
   0xff, 0x0f, 0xdf, 0x07, 0xcf, 0x03, 0xc7, 0x01, 0xc3, 0x00, 0x41, 0x00};
