#define fff_width 12
#define fff_height 12
static char fff_bits[] = {
   0x20, 0x08, 0x30, 0x0c, 0x38, 0x0e, 0x3c, 0x0f, 0xbe, 0x0f, 0xff, 0x0f,
   0xff, 0x0f, 0xbe, 0x0f, 0x3c, 0x0f, 0x38, 0x0e, 0x30, 0x0c, 0x20, 0x08};
