#define painter_width 16
#define painter_height 16
#define painter_x_hot 1
#define painter_y_hot 1
static char painter_bits[] = {
   0x15, 0x00, 0x2a, 0x00, 0x55, 0x00, 0xaa, 0x00, 0xd5, 0x00, 0xaa, 0x00,
   0x94, 0x03, 0x38, 0x02, 0x40, 0x04, 0xc0, 0x08, 0x00, 0x11, 0x00, 0x22,
   0x00, 0x44, 0x00, 0x88, 0x00, 0x90, 0x00, 0xe0};
