#define painterMask_width 16
#define painterMask_height 16
#define painterMask_x_hot 1
#define painterMask_y_hot 1
static char painterMask_bits[] = {
   0x1f, 0x00, 0x3f, 0x00, 0x7f, 0x00, 0xff, 0x00, 0xff, 0x00, 0xfe, 0x00,
   0xfc, 0x03, 0xf8, 0x03, 0xc0, 0x07, 0xc0, 0x0f, 0x00, 0x1f, 0x00, 0x3e,
   0x00, 0x7c, 0x00, 0xf8, 0x00, 0xf0, 0x00, 0xe0};
