#define record_pointer_width 16
#define record_pointer_height 16
#define record_pointer_x_hot 0
#define record_pointer_y_hot 0
static char record_pointer_bits[] = {
   0x03, 0x00, 0x1f, 0x00, 0x7e, 0x00, 0xfe, 0x01, 0xfe, 0x00, 0x7c, 0x00,
   0xfc, 0x00, 0xd8, 0x01, 0x88, 0x03, 0x00, 0x00, 0xb8, 0x3b, 0xa8, 0x08,
   0xb8, 0x09, 0xa8, 0x08, 0xa8, 0x3b, 0x00, 0x00};
